<mxfile host="app.diagrams.net" agent="Mozilla/5.0 (Windows NT 10.0; Win64; x64) AppleWebKit/537.36 (KHTML, like Gecko) Chrome/139.0.0.0 Safari/537.36" version="28.1.1">
  <diagram name="페이지-1" id="BvR-VCYj63a1SbAyQu9s">
    <mxGraphModel dx="2864" dy="2242" grid="1" gridSize="10" guides="1" tooltips="1" connect="1" arrows="1" fold="1" page="1" pageScale="1" pageWidth="827" pageHeight="1169" math="0" shadow="0">
      <root>
        <mxCell id="0" />
        <mxCell id="1" parent="0" />
        <mxCell id="v1SkrNrnJOkdzIc9S7rJ-1" value="users" style="rounded=0;whiteSpace=wrap;html=1;" parent="1" vertex="1">
          <mxGeometry x="1000" y="-250" width="120" height="60" as="geometry" />
        </mxCell>
        <mxCell id="v1SkrNrnJOkdzIc9S7rJ-2" value="posts" style="rounded=0;whiteSpace=wrap;html=1;" parent="1" vertex="1">
          <mxGeometry x="470" y="-260" width="120" height="60" as="geometry" />
        </mxCell>
        <mxCell id="v1SkrNrnJOkdzIc9S7rJ-3" value="categories" style="rounded=0;whiteSpace=wrap;html=1;" parent="1" vertex="1">
          <mxGeometry x="280" width="120" height="60" as="geometry" />
        </mxCell>
        <mxCell id="v1SkrNrnJOkdzIc9S7rJ-4" value="views" style="rounded=0;whiteSpace=wrap;html=1;" parent="1" vertex="1">
          <mxGeometry x="1060" y="190" width="120" height="60" as="geometry" />
        </mxCell>
        <mxCell id="v1SkrNrnJOkdzIc9S7rJ-5" value="hashtags" style="rounded=0;whiteSpace=wrap;html=1;" parent="1" vertex="1">
          <mxGeometry x="410" y="300" width="120" height="60" as="geometry" />
        </mxCell>
        <mxCell id="v1SkrNrnJOkdzIc9S7rJ-6" value="likes" style="rounded=0;whiteSpace=wrap;html=1;" parent="1" vertex="1">
          <mxGeometry x="-140" y="280" width="120" height="60" as="geometry" />
        </mxCell>
        <mxCell id="v1SkrNrnJOkdzIc9S7rJ-7" value="reports" style="rounded=0;whiteSpace=wrap;html=1;" parent="1" vertex="1">
          <mxGeometry x="560" y="555" width="120" height="60" as="geometry" />
        </mxCell>
        <mxCell id="v1SkrNrnJOkdzIc9S7rJ-8" value="followers" style="rounded=0;whiteSpace=wrap;html=1;" parent="1" vertex="1">
          <mxGeometry x="150" y="545" width="120" height="60" as="geometry" />
        </mxCell>
        <mxCell id="v1SkrNrnJOkdzIc9S7rJ-9" value="email" style="ellipse;whiteSpace=wrap;html=1;" parent="1" vertex="1">
          <mxGeometry x="1120" y="-380" width="120" height="60" as="geometry" />
        </mxCell>
        <mxCell id="v1SkrNrnJOkdzIc9S7rJ-10" value="password" style="ellipse;whiteSpace=wrap;html=1;" parent="1" vertex="1">
          <mxGeometry x="1000" y="-140" width="120" height="60" as="geometry" />
        </mxCell>
        <mxCell id="v1SkrNrnJOkdzIc9S7rJ-11" value="name" style="ellipse;whiteSpace=wrap;html=1;" parent="1" vertex="1">
          <mxGeometry x="910" y="-365" width="120" height="50" as="geometry" />
        </mxCell>
        <mxCell id="v1SkrNrnJOkdzIc9S7rJ-12" value="age" style="ellipse;whiteSpace=wrap;html=1;" parent="1" vertex="1">
          <mxGeometry x="1160" y="-250" width="120" height="60" as="geometry" />
        </mxCell>
        <mxCell id="v1SkrNrnJOkdzIc9S7rJ-13" value="id" style="ellipse;whiteSpace=wrap;html=1;align=center;fontStyle=4;" parent="1" vertex="1">
          <mxGeometry x="840" y="-240" width="100" height="40" as="geometry" />
        </mxCell>
        <mxCell id="v1SkrNrnJOkdzIc9S7rJ-15" value="" style="endArrow=none;html=1;rounded=0;entryX=0;entryY=0.5;entryDx=0;entryDy=0;exitX=1;exitY=0.5;exitDx=0;exitDy=0;" parent="1" source="v1SkrNrnJOkdzIc9S7rJ-13" target="v1SkrNrnJOkdzIc9S7rJ-1" edge="1">
          <mxGeometry relative="1" as="geometry">
            <mxPoint x="850" y="-150" as="sourcePoint" />
            <mxPoint x="1010" y="-150" as="targetPoint" />
          </mxGeometry>
        </mxCell>
        <mxCell id="v1SkrNrnJOkdzIc9S7rJ-16" value="" style="endArrow=none;html=1;rounded=0;entryX=0.5;entryY=0;entryDx=0;entryDy=0;exitX=0.5;exitY=1;exitDx=0;exitDy=0;" parent="1" source="v1SkrNrnJOkdzIc9S7rJ-11" target="v1SkrNrnJOkdzIc9S7rJ-1" edge="1">
          <mxGeometry relative="1" as="geometry">
            <mxPoint x="950" y="-160" as="sourcePoint" />
            <mxPoint x="1030" y="-160" as="targetPoint" />
          </mxGeometry>
        </mxCell>
        <mxCell id="v1SkrNrnJOkdzIc9S7rJ-17" value="" style="endArrow=none;html=1;rounded=0;entryX=0.5;entryY=1;entryDx=0;entryDy=0;exitX=0.567;exitY=0.017;exitDx=0;exitDy=0;exitPerimeter=0;" parent="1" source="v1SkrNrnJOkdzIc9S7rJ-1" target="v1SkrNrnJOkdzIc9S7rJ-9" edge="1">
          <mxGeometry relative="1" as="geometry">
            <mxPoint x="1030" y="-230" as="sourcePoint" />
            <mxPoint x="1090" y="-190" as="targetPoint" />
          </mxGeometry>
        </mxCell>
        <mxCell id="v1SkrNrnJOkdzIc9S7rJ-18" value="" style="endArrow=none;html=1;rounded=0;entryX=0;entryY=0.5;entryDx=0;entryDy=0;exitX=1;exitY=0.5;exitDx=0;exitDy=0;" parent="1" source="v1SkrNrnJOkdzIc9S7rJ-1" target="v1SkrNrnJOkdzIc9S7rJ-12" edge="1">
          <mxGeometry relative="1" as="geometry">
            <mxPoint x="1150" y="-170" as="sourcePoint" />
            <mxPoint x="1210" y="-220" as="targetPoint" />
          </mxGeometry>
        </mxCell>
        <mxCell id="v1SkrNrnJOkdzIc9S7rJ-19" value="" style="endArrow=none;html=1;rounded=0;entryX=0.5;entryY=0;entryDx=0;entryDy=0;exitX=0.5;exitY=1;exitDx=0;exitDy=0;" parent="1" source="v1SkrNrnJOkdzIc9S7rJ-1" target="v1SkrNrnJOkdzIc9S7rJ-10" edge="1">
          <mxGeometry relative="1" as="geometry">
            <mxPoint x="1150" y="-160" as="sourcePoint" />
            <mxPoint x="1180" y="-150" as="targetPoint" />
          </mxGeometry>
        </mxCell>
        <mxCell id="v1SkrNrnJOkdzIc9S7rJ-20" value="users" style="shape=table;startSize=30;container=1;collapsible=1;childLayout=tableLayout;fixedRows=1;rowLines=0;fontStyle=1;align=center;resizeLast=1;html=1;" parent="1" vertex="1">
          <mxGeometry x="-260" y="-470" width="180" height="180" as="geometry" />
        </mxCell>
        <mxCell id="v1SkrNrnJOkdzIc9S7rJ-21" value="" style="shape=tableRow;horizontal=0;startSize=0;swimlaneHead=0;swimlaneBody=0;fillColor=none;collapsible=0;dropTarget=0;points=[[0,0.5],[1,0.5]];portConstraint=eastwest;top=0;left=0;right=0;bottom=1;" parent="v1SkrNrnJOkdzIc9S7rJ-20" vertex="1">
          <mxGeometry y="30" width="180" height="30" as="geometry" />
        </mxCell>
        <mxCell id="v1SkrNrnJOkdzIc9S7rJ-22" value="PK" style="shape=partialRectangle;connectable=0;fillColor=none;top=0;left=0;bottom=0;right=0;fontStyle=1;overflow=hidden;whiteSpace=wrap;html=1;" parent="v1SkrNrnJOkdzIc9S7rJ-21" vertex="1">
          <mxGeometry width="30" height="30" as="geometry">
            <mxRectangle width="30" height="30" as="alternateBounds" />
          </mxGeometry>
        </mxCell>
        <mxCell id="v1SkrNrnJOkdzIc9S7rJ-23" value="id" style="shape=partialRectangle;connectable=0;fillColor=none;top=0;left=0;bottom=0;right=0;align=left;spacingLeft=6;fontStyle=5;overflow=hidden;whiteSpace=wrap;html=1;" parent="v1SkrNrnJOkdzIc9S7rJ-21" vertex="1">
          <mxGeometry x="30" width="150" height="30" as="geometry">
            <mxRectangle width="150" height="30" as="alternateBounds" />
          </mxGeometry>
        </mxCell>
        <mxCell id="v1SkrNrnJOkdzIc9S7rJ-24" value="" style="shape=tableRow;horizontal=0;startSize=0;swimlaneHead=0;swimlaneBody=0;fillColor=none;collapsible=0;dropTarget=0;points=[[0,0.5],[1,0.5]];portConstraint=eastwest;top=0;left=0;right=0;bottom=0;" parent="v1SkrNrnJOkdzIc9S7rJ-20" vertex="1">
          <mxGeometry y="60" width="180" height="30" as="geometry" />
        </mxCell>
        <mxCell id="v1SkrNrnJOkdzIc9S7rJ-25" value="" style="shape=partialRectangle;connectable=0;fillColor=none;top=0;left=0;bottom=0;right=0;editable=1;overflow=hidden;whiteSpace=wrap;html=1;" parent="v1SkrNrnJOkdzIc9S7rJ-24" vertex="1">
          <mxGeometry width="30" height="30" as="geometry">
            <mxRectangle width="30" height="30" as="alternateBounds" />
          </mxGeometry>
        </mxCell>
        <mxCell id="v1SkrNrnJOkdzIc9S7rJ-26" value="name" style="shape=partialRectangle;connectable=0;fillColor=none;top=0;left=0;bottom=0;right=0;align=left;spacingLeft=6;overflow=hidden;whiteSpace=wrap;html=1;" parent="v1SkrNrnJOkdzIc9S7rJ-24" vertex="1">
          <mxGeometry x="30" width="150" height="30" as="geometry">
            <mxRectangle width="150" height="30" as="alternateBounds" />
          </mxGeometry>
        </mxCell>
        <mxCell id="v1SkrNrnJOkdzIc9S7rJ-27" value="" style="shape=tableRow;horizontal=0;startSize=0;swimlaneHead=0;swimlaneBody=0;fillColor=none;collapsible=0;dropTarget=0;points=[[0,0.5],[1,0.5]];portConstraint=eastwest;top=0;left=0;right=0;bottom=0;" parent="v1SkrNrnJOkdzIc9S7rJ-20" vertex="1">
          <mxGeometry y="90" width="180" height="30" as="geometry" />
        </mxCell>
        <mxCell id="v1SkrNrnJOkdzIc9S7rJ-28" value="" style="shape=partialRectangle;connectable=0;fillColor=none;top=0;left=0;bottom=0;right=0;editable=1;overflow=hidden;whiteSpace=wrap;html=1;" parent="v1SkrNrnJOkdzIc9S7rJ-27" vertex="1">
          <mxGeometry width="30" height="30" as="geometry">
            <mxRectangle width="30" height="30" as="alternateBounds" />
          </mxGeometry>
        </mxCell>
        <mxCell id="v1SkrNrnJOkdzIc9S7rJ-29" value="email" style="shape=partialRectangle;connectable=0;fillColor=none;top=0;left=0;bottom=0;right=0;align=left;spacingLeft=6;overflow=hidden;whiteSpace=wrap;html=1;" parent="v1SkrNrnJOkdzIc9S7rJ-27" vertex="1">
          <mxGeometry x="30" width="150" height="30" as="geometry">
            <mxRectangle width="150" height="30" as="alternateBounds" />
          </mxGeometry>
        </mxCell>
        <mxCell id="v1SkrNrnJOkdzIc9S7rJ-34" value="" style="shape=tableRow;horizontal=0;startSize=0;swimlaneHead=0;swimlaneBody=0;fillColor=none;collapsible=0;dropTarget=0;points=[[0,0.5],[1,0.5]];portConstraint=eastwest;top=0;left=0;right=0;bottom=0;" parent="v1SkrNrnJOkdzIc9S7rJ-20" vertex="1">
          <mxGeometry y="120" width="180" height="30" as="geometry" />
        </mxCell>
        <mxCell id="v1SkrNrnJOkdzIc9S7rJ-35" value="" style="shape=partialRectangle;connectable=0;fillColor=none;top=0;left=0;bottom=0;right=0;editable=1;overflow=hidden;whiteSpace=wrap;html=1;" parent="v1SkrNrnJOkdzIc9S7rJ-34" vertex="1">
          <mxGeometry width="30" height="30" as="geometry">
            <mxRectangle width="30" height="30" as="alternateBounds" />
          </mxGeometry>
        </mxCell>
        <mxCell id="v1SkrNrnJOkdzIc9S7rJ-36" value="age" style="shape=partialRectangle;connectable=0;fillColor=none;top=0;left=0;bottom=0;right=0;align=left;spacingLeft=6;overflow=hidden;whiteSpace=wrap;html=1;" parent="v1SkrNrnJOkdzIc9S7rJ-34" vertex="1">
          <mxGeometry x="30" width="150" height="30" as="geometry">
            <mxRectangle width="150" height="30" as="alternateBounds" />
          </mxGeometry>
        </mxCell>
        <mxCell id="v1SkrNrnJOkdzIc9S7rJ-30" value="" style="shape=tableRow;horizontal=0;startSize=0;swimlaneHead=0;swimlaneBody=0;fillColor=none;collapsible=0;dropTarget=0;points=[[0,0.5],[1,0.5]];portConstraint=eastwest;top=0;left=0;right=0;bottom=0;" parent="v1SkrNrnJOkdzIc9S7rJ-20" vertex="1">
          <mxGeometry y="150" width="180" height="30" as="geometry" />
        </mxCell>
        <mxCell id="v1SkrNrnJOkdzIc9S7rJ-31" value="" style="shape=partialRectangle;connectable=0;fillColor=none;top=0;left=0;bottom=0;right=0;editable=1;overflow=hidden;whiteSpace=wrap;html=1;" parent="v1SkrNrnJOkdzIc9S7rJ-30" vertex="1">
          <mxGeometry width="30" height="30" as="geometry">
            <mxRectangle width="30" height="30" as="alternateBounds" />
          </mxGeometry>
        </mxCell>
        <mxCell id="v1SkrNrnJOkdzIc9S7rJ-32" value="password" style="shape=partialRectangle;connectable=0;fillColor=none;top=0;left=0;bottom=0;right=0;align=left;spacingLeft=6;overflow=hidden;whiteSpace=wrap;html=1;" parent="v1SkrNrnJOkdzIc9S7rJ-30" vertex="1">
          <mxGeometry x="30" width="150" height="30" as="geometry">
            <mxRectangle width="150" height="30" as="alternateBounds" />
          </mxGeometry>
        </mxCell>
        <mxCell id="v1SkrNrnJOkdzIc9S7rJ-37" value="createat" style="ellipse;whiteSpace=wrap;html=1;align=center;" parent="1" vertex="1">
          <mxGeometry x="630" y="-240" width="100" height="40" as="geometry" />
        </mxCell>
        <mxCell id="v1SkrNrnJOkdzIc9S7rJ-38" value="category" style="ellipse;whiteSpace=wrap;html=1;align=center;" parent="1" vertex="1">
          <mxGeometry x="600" y="-340" width="100" height="40" as="geometry" />
        </mxCell>
        <mxCell id="v1SkrNrnJOkdzIc9S7rJ-39" value="contents" style="ellipse;whiteSpace=wrap;html=1;align=center;" parent="1" vertex="1">
          <mxGeometry x="450" y="-360" width="100" height="40" as="geometry" />
        </mxCell>
        <mxCell id="v1SkrNrnJOkdzIc9S7rJ-40" value="title" style="ellipse;whiteSpace=wrap;html=1;align=center;" parent="1" vertex="1">
          <mxGeometry x="310" y="-340" width="100" height="40" as="geometry" />
        </mxCell>
        <mxCell id="v1SkrNrnJOkdzIc9S7rJ-41" value="categories_id(FK)" style="ellipse;whiteSpace=wrap;html=1;align=center;" parent="1" vertex="1">
          <mxGeometry x="310" y="-160" width="100" height="40" as="geometry" />
        </mxCell>
        <mxCell id="v1SkrNrnJOkdzIc9S7rJ-42" value="view" style="ellipse;whiteSpace=wrap;html=1;align=center;" parent="1" vertex="1">
          <mxGeometry x="610" y="-140" width="100" height="40" as="geometry" />
        </mxCell>
        <mxCell id="v1SkrNrnJOkdzIc9S7rJ-43" value="users_id(FK)" style="ellipse;whiteSpace=wrap;html=1;align=center;" parent="1" vertex="1">
          <mxGeometry x="470" y="-135" width="100" height="40" as="geometry" />
        </mxCell>
        <mxCell id="v1SkrNrnJOkdzIc9S7rJ-44" value="id" style="ellipse;whiteSpace=wrap;html=1;align=center;fontStyle=4;" parent="1" vertex="1">
          <mxGeometry x="320" y="-250" width="100" height="40" as="geometry" />
        </mxCell>
        <mxCell id="v1SkrNrnJOkdzIc9S7rJ-45" value="" style="endArrow=none;html=1;rounded=0;exitX=1;exitY=0.5;exitDx=0;exitDy=0;entryX=0;entryY=0.5;entryDx=0;entryDy=0;" parent="1" source="v1SkrNrnJOkdzIc9S7rJ-44" target="v1SkrNrnJOkdzIc9S7rJ-2" edge="1">
          <mxGeometry relative="1" as="geometry">
            <mxPoint x="370" y="-150" as="sourcePoint" />
            <mxPoint x="450" y="-230" as="targetPoint" />
          </mxGeometry>
        </mxCell>
        <mxCell id="v1SkrNrnJOkdzIc9S7rJ-46" value="" style="endArrow=none;html=1;rounded=0;exitX=1;exitY=0.5;exitDx=0;exitDy=0;entryX=0;entryY=1;entryDx=0;entryDy=0;" parent="1" source="v1SkrNrnJOkdzIc9S7rJ-41" target="v1SkrNrnJOkdzIc9S7rJ-2" edge="1">
          <mxGeometry relative="1" as="geometry">
            <mxPoint x="430" y="-220" as="sourcePoint" />
            <mxPoint x="460" y="-220" as="targetPoint" />
          </mxGeometry>
        </mxCell>
        <mxCell id="v1SkrNrnJOkdzIc9S7rJ-47" value="" style="endArrow=none;html=1;rounded=0;exitX=0.5;exitY=0;exitDx=0;exitDy=0;entryX=0.463;entryY=0.99;entryDx=0;entryDy=0;entryPerimeter=0;" parent="1" source="v1SkrNrnJOkdzIc9S7rJ-43" target="v1SkrNrnJOkdzIc9S7rJ-2" edge="1">
          <mxGeometry relative="1" as="geometry">
            <mxPoint x="420" y="-130" as="sourcePoint" />
            <mxPoint x="460" y="-190" as="targetPoint" />
          </mxGeometry>
        </mxCell>
        <mxCell id="v1SkrNrnJOkdzIc9S7rJ-48" value="" style="endArrow=none;html=1;rounded=0;exitX=0.5;exitY=0;exitDx=0;exitDy=0;entryX=1;entryY=1;entryDx=0;entryDy=0;" parent="1" source="v1SkrNrnJOkdzIc9S7rJ-42" target="v1SkrNrnJOkdzIc9S7rJ-2" edge="1">
          <mxGeometry relative="1" as="geometry">
            <mxPoint x="530" y="-125" as="sourcePoint" />
            <mxPoint x="516" y="-191" as="targetPoint" />
          </mxGeometry>
        </mxCell>
        <mxCell id="v1SkrNrnJOkdzIc9S7rJ-49" value="" style="endArrow=none;html=1;rounded=0;exitX=0;exitY=0.5;exitDx=0;exitDy=0;entryX=1;entryY=0.5;entryDx=0;entryDy=0;" parent="1" source="v1SkrNrnJOkdzIc9S7rJ-37" target="v1SkrNrnJOkdzIc9S7rJ-2" edge="1">
          <mxGeometry relative="1" as="geometry">
            <mxPoint x="670" y="-130" as="sourcePoint" />
            <mxPoint x="580" y="-190" as="targetPoint" />
          </mxGeometry>
        </mxCell>
        <mxCell id="v1SkrNrnJOkdzIc9S7rJ-50" value="" style="endArrow=none;html=1;rounded=0;exitX=0.5;exitY=1;exitDx=0;exitDy=0;entryX=1;entryY=0;entryDx=0;entryDy=0;" parent="1" source="v1SkrNrnJOkdzIc9S7rJ-38" target="v1SkrNrnJOkdzIc9S7rJ-2" edge="1">
          <mxGeometry relative="1" as="geometry">
            <mxPoint x="640" y="-210" as="sourcePoint" />
            <mxPoint x="580" y="-220" as="targetPoint" />
          </mxGeometry>
        </mxCell>
        <mxCell id="v1SkrNrnJOkdzIc9S7rJ-51" value="" style="endArrow=none;html=1;rounded=0;exitX=0.5;exitY=1;exitDx=0;exitDy=0;entryX=0.5;entryY=0;entryDx=0;entryDy=0;" parent="1" source="v1SkrNrnJOkdzIc9S7rJ-39" target="v1SkrNrnJOkdzIc9S7rJ-2" edge="1">
          <mxGeometry relative="1" as="geometry">
            <mxPoint x="660" y="-290" as="sourcePoint" />
            <mxPoint x="580" y="-250" as="targetPoint" />
          </mxGeometry>
        </mxCell>
        <mxCell id="v1SkrNrnJOkdzIc9S7rJ-52" value="" style="endArrow=none;html=1;rounded=0;exitX=1;exitY=0.5;exitDx=0;exitDy=0;entryX=0;entryY=0;entryDx=0;entryDy=0;" parent="1" source="v1SkrNrnJOkdzIc9S7rJ-40" target="v1SkrNrnJOkdzIc9S7rJ-2" edge="1">
          <mxGeometry relative="1" as="geometry">
            <mxPoint x="510" y="-310" as="sourcePoint" />
            <mxPoint x="520" y="-250" as="targetPoint" />
          </mxGeometry>
        </mxCell>
        <mxCell id="v1SkrNrnJOkdzIc9S7rJ-53" value="posts" style="shape=table;startSize=30;container=1;collapsible=1;childLayout=tableLayout;fixedRows=1;rowLines=0;fontStyle=1;align=center;resizeLast=1;html=1;" parent="1" vertex="1">
          <mxGeometry x="-490" y="-470" width="180" height="270" as="geometry">
            <mxRectangle x="100" y="-370" width="70" height="30" as="alternateBounds" />
          </mxGeometry>
        </mxCell>
        <mxCell id="v1SkrNrnJOkdzIc9S7rJ-125" value="" style="shape=tableRow;horizontal=0;startSize=0;swimlaneHead=0;swimlaneBody=0;fillColor=none;collapsible=0;dropTarget=0;points=[[0,0.5],[1,0.5]];portConstraint=eastwest;top=0;left=0;right=0;bottom=1;" parent="v1SkrNrnJOkdzIc9S7rJ-53" vertex="1">
          <mxGeometry y="30" width="180" height="30" as="geometry" />
        </mxCell>
        <mxCell id="v1SkrNrnJOkdzIc9S7rJ-126" value="PK" style="shape=partialRectangle;connectable=0;fillColor=none;top=0;left=0;bottom=0;right=0;fontStyle=1;overflow=hidden;whiteSpace=wrap;html=1;" parent="v1SkrNrnJOkdzIc9S7rJ-125" vertex="1">
          <mxGeometry width="30" height="30" as="geometry">
            <mxRectangle width="30" height="30" as="alternateBounds" />
          </mxGeometry>
        </mxCell>
        <mxCell id="v1SkrNrnJOkdzIc9S7rJ-127" value="id" style="shape=partialRectangle;connectable=0;fillColor=none;top=0;left=0;bottom=0;right=0;align=left;spacingLeft=6;fontStyle=5;overflow=hidden;whiteSpace=wrap;html=1;" parent="v1SkrNrnJOkdzIc9S7rJ-125" vertex="1">
          <mxGeometry x="30" width="150" height="30" as="geometry">
            <mxRectangle width="150" height="30" as="alternateBounds" />
          </mxGeometry>
        </mxCell>
        <mxCell id="v1SkrNrnJOkdzIc9S7rJ-128" value="" style="shape=tableRow;horizontal=0;startSize=0;swimlaneHead=0;swimlaneBody=0;fillColor=none;collapsible=0;dropTarget=0;points=[[0,0.5],[1,0.5]];portConstraint=eastwest;top=0;left=0;right=0;bottom=1;" parent="v1SkrNrnJOkdzIc9S7rJ-53" vertex="1">
          <mxGeometry y="60" width="180" height="30" as="geometry" />
        </mxCell>
        <mxCell id="v1SkrNrnJOkdzIc9S7rJ-129" value="FK" style="shape=partialRectangle;connectable=0;fillColor=none;top=0;left=0;bottom=0;right=0;fontStyle=1;overflow=hidden;whiteSpace=wrap;html=1;" parent="v1SkrNrnJOkdzIc9S7rJ-128" vertex="1">
          <mxGeometry width="30" height="30" as="geometry">
            <mxRectangle width="30" height="30" as="alternateBounds" />
          </mxGeometry>
        </mxCell>
        <mxCell id="v1SkrNrnJOkdzIc9S7rJ-130" value="users_id" style="shape=partialRectangle;connectable=0;fillColor=none;top=0;left=0;bottom=0;right=0;align=left;spacingLeft=6;fontStyle=5;overflow=hidden;whiteSpace=wrap;html=1;" parent="v1SkrNrnJOkdzIc9S7rJ-128" vertex="1">
          <mxGeometry x="30" width="150" height="30" as="geometry">
            <mxRectangle width="150" height="30" as="alternateBounds" />
          </mxGeometry>
        </mxCell>
        <mxCell id="v1SkrNrnJOkdzIc9S7rJ-54" value="" style="shape=tableRow;horizontal=0;startSize=0;swimlaneHead=0;swimlaneBody=0;fillColor=none;collapsible=0;dropTarget=0;points=[[0,0.5],[1,0.5]];portConstraint=eastwest;top=0;left=0;right=0;bottom=1;" parent="v1SkrNrnJOkdzIc9S7rJ-53" vertex="1">
          <mxGeometry y="90" width="180" height="30" as="geometry" />
        </mxCell>
        <mxCell id="v1SkrNrnJOkdzIc9S7rJ-55" value="FK" style="shape=partialRectangle;connectable=0;fillColor=none;top=0;left=0;bottom=0;right=0;fontStyle=1;overflow=hidden;whiteSpace=wrap;html=1;" parent="v1SkrNrnJOkdzIc9S7rJ-54" vertex="1">
          <mxGeometry width="30" height="30" as="geometry">
            <mxRectangle width="30" height="30" as="alternateBounds" />
          </mxGeometry>
        </mxCell>
        <mxCell id="v1SkrNrnJOkdzIc9S7rJ-56" value="categories_id" style="shape=partialRectangle;connectable=0;fillColor=none;top=0;left=0;bottom=0;right=0;align=left;spacingLeft=6;fontStyle=5;overflow=hidden;whiteSpace=wrap;html=1;" parent="v1SkrNrnJOkdzIc9S7rJ-54" vertex="1">
          <mxGeometry x="30" width="150" height="30" as="geometry">
            <mxRectangle width="150" height="30" as="alternateBounds" />
          </mxGeometry>
        </mxCell>
        <mxCell id="v1SkrNrnJOkdzIc9S7rJ-57" value="" style="shape=tableRow;horizontal=0;startSize=0;swimlaneHead=0;swimlaneBody=0;fillColor=none;collapsible=0;dropTarget=0;points=[[0,0.5],[1,0.5]];portConstraint=eastwest;top=0;left=0;right=0;bottom=0;" parent="v1SkrNrnJOkdzIc9S7rJ-53" vertex="1">
          <mxGeometry y="120" width="180" height="30" as="geometry" />
        </mxCell>
        <mxCell id="v1SkrNrnJOkdzIc9S7rJ-58" value="" style="shape=partialRectangle;connectable=0;fillColor=none;top=0;left=0;bottom=0;right=0;editable=1;overflow=hidden;whiteSpace=wrap;html=1;" parent="v1SkrNrnJOkdzIc9S7rJ-57" vertex="1">
          <mxGeometry width="30" height="30" as="geometry">
            <mxRectangle width="30" height="30" as="alternateBounds" />
          </mxGeometry>
        </mxCell>
        <mxCell id="v1SkrNrnJOkdzIc9S7rJ-59" value="title" style="shape=partialRectangle;connectable=0;fillColor=none;top=0;left=0;bottom=0;right=0;align=left;spacingLeft=6;overflow=hidden;whiteSpace=wrap;html=1;" parent="v1SkrNrnJOkdzIc9S7rJ-57" vertex="1">
          <mxGeometry x="30" width="150" height="30" as="geometry">
            <mxRectangle width="150" height="30" as="alternateBounds" />
          </mxGeometry>
        </mxCell>
        <mxCell id="v1SkrNrnJOkdzIc9S7rJ-60" value="" style="shape=tableRow;horizontal=0;startSize=0;swimlaneHead=0;swimlaneBody=0;fillColor=none;collapsible=0;dropTarget=0;points=[[0,0.5],[1,0.5]];portConstraint=eastwest;top=0;left=0;right=0;bottom=0;" parent="v1SkrNrnJOkdzIc9S7rJ-53" vertex="1">
          <mxGeometry y="150" width="180" height="30" as="geometry" />
        </mxCell>
        <mxCell id="v1SkrNrnJOkdzIc9S7rJ-61" value="" style="shape=partialRectangle;connectable=0;fillColor=none;top=0;left=0;bottom=0;right=0;editable=1;overflow=hidden;whiteSpace=wrap;html=1;" parent="v1SkrNrnJOkdzIc9S7rJ-60" vertex="1">
          <mxGeometry width="30" height="30" as="geometry">
            <mxRectangle width="30" height="30" as="alternateBounds" />
          </mxGeometry>
        </mxCell>
        <mxCell id="v1SkrNrnJOkdzIc9S7rJ-62" value="contents" style="shape=partialRectangle;connectable=0;fillColor=none;top=0;left=0;bottom=0;right=0;align=left;spacingLeft=6;overflow=hidden;whiteSpace=wrap;html=1;" parent="v1SkrNrnJOkdzIc9S7rJ-60" vertex="1">
          <mxGeometry x="30" width="150" height="30" as="geometry">
            <mxRectangle width="150" height="30" as="alternateBounds" />
          </mxGeometry>
        </mxCell>
        <mxCell id="v1SkrNrnJOkdzIc9S7rJ-67" value="" style="shape=tableRow;horizontal=0;startSize=0;swimlaneHead=0;swimlaneBody=0;fillColor=none;collapsible=0;dropTarget=0;points=[[0,0.5],[1,0.5]];portConstraint=eastwest;top=0;left=0;right=0;bottom=0;" parent="v1SkrNrnJOkdzIc9S7rJ-53" vertex="1">
          <mxGeometry y="180" width="180" height="30" as="geometry" />
        </mxCell>
        <mxCell id="v1SkrNrnJOkdzIc9S7rJ-68" value="" style="shape=partialRectangle;connectable=0;fillColor=none;top=0;left=0;bottom=0;right=0;editable=1;overflow=hidden;whiteSpace=wrap;html=1;" parent="v1SkrNrnJOkdzIc9S7rJ-67" vertex="1">
          <mxGeometry width="30" height="30" as="geometry">
            <mxRectangle width="30" height="30" as="alternateBounds" />
          </mxGeometry>
        </mxCell>
        <mxCell id="v1SkrNrnJOkdzIc9S7rJ-69" value="category" style="shape=partialRectangle;connectable=0;fillColor=none;top=0;left=0;bottom=0;right=0;align=left;spacingLeft=6;overflow=hidden;whiteSpace=wrap;html=1;" parent="v1SkrNrnJOkdzIc9S7rJ-67" vertex="1">
          <mxGeometry x="30" width="150" height="30" as="geometry">
            <mxRectangle width="150" height="30" as="alternateBounds" />
          </mxGeometry>
        </mxCell>
        <mxCell id="v1SkrNrnJOkdzIc9S7rJ-70" value="" style="shape=tableRow;horizontal=0;startSize=0;swimlaneHead=0;swimlaneBody=0;fillColor=none;collapsible=0;dropTarget=0;points=[[0,0.5],[1,0.5]];portConstraint=eastwest;top=0;left=0;right=0;bottom=0;" parent="v1SkrNrnJOkdzIc9S7rJ-53" vertex="1">
          <mxGeometry y="210" width="180" height="30" as="geometry" />
        </mxCell>
        <mxCell id="v1SkrNrnJOkdzIc9S7rJ-71" value="" style="shape=partialRectangle;connectable=0;fillColor=none;top=0;left=0;bottom=0;right=0;editable=1;overflow=hidden;whiteSpace=wrap;html=1;" parent="v1SkrNrnJOkdzIc9S7rJ-70" vertex="1">
          <mxGeometry width="30" height="30" as="geometry">
            <mxRectangle width="30" height="30" as="alternateBounds" />
          </mxGeometry>
        </mxCell>
        <mxCell id="v1SkrNrnJOkdzIc9S7rJ-72" value="createat" style="shape=partialRectangle;connectable=0;fillColor=none;top=0;left=0;bottom=0;right=0;align=left;spacingLeft=6;overflow=hidden;whiteSpace=wrap;html=1;" parent="v1SkrNrnJOkdzIc9S7rJ-70" vertex="1">
          <mxGeometry x="30" width="150" height="30" as="geometry">
            <mxRectangle width="150" height="30" as="alternateBounds" />
          </mxGeometry>
        </mxCell>
        <mxCell id="v1SkrNrnJOkdzIc9S7rJ-73" value="" style="shape=tableRow;horizontal=0;startSize=0;swimlaneHead=0;swimlaneBody=0;fillColor=none;collapsible=0;dropTarget=0;points=[[0,0.5],[1,0.5]];portConstraint=eastwest;top=0;left=0;right=0;bottom=0;" parent="v1SkrNrnJOkdzIc9S7rJ-53" vertex="1">
          <mxGeometry y="240" width="180" height="30" as="geometry" />
        </mxCell>
        <mxCell id="v1SkrNrnJOkdzIc9S7rJ-74" value="" style="shape=partialRectangle;connectable=0;fillColor=none;top=0;left=0;bottom=0;right=0;editable=1;overflow=hidden;whiteSpace=wrap;html=1;" parent="v1SkrNrnJOkdzIc9S7rJ-73" vertex="1">
          <mxGeometry width="30" height="30" as="geometry">
            <mxRectangle width="30" height="30" as="alternateBounds" />
          </mxGeometry>
        </mxCell>
        <mxCell id="v1SkrNrnJOkdzIc9S7rJ-75" value="view" style="shape=partialRectangle;connectable=0;fillColor=none;top=0;left=0;bottom=0;right=0;align=left;spacingLeft=6;overflow=hidden;whiteSpace=wrap;html=1;" parent="v1SkrNrnJOkdzIc9S7rJ-73" vertex="1">
          <mxGeometry x="30" width="150" height="30" as="geometry">
            <mxRectangle width="150" height="30" as="alternateBounds" />
          </mxGeometry>
        </mxCell>
        <mxCell id="v1SkrNrnJOkdzIc9S7rJ-82" value="id" style="ellipse;whiteSpace=wrap;html=1;align=center;fontStyle=4;" parent="1" vertex="1">
          <mxGeometry x="130" width="100" height="40" as="geometry" />
        </mxCell>
        <mxCell id="v1SkrNrnJOkdzIc9S7rJ-83" value="name" style="ellipse;whiteSpace=wrap;html=1;align=center;" parent="1" vertex="1">
          <mxGeometry x="220" y="100" width="90" height="40" as="geometry" />
        </mxCell>
        <mxCell id="v1SkrNrnJOkdzIc9S7rJ-84" value="" style="endArrow=none;html=1;rounded=0;exitX=1;exitY=0.5;exitDx=0;exitDy=0;entryX=0;entryY=0.5;entryDx=0;entryDy=0;" parent="1" source="v1SkrNrnJOkdzIc9S7rJ-82" target="v1SkrNrnJOkdzIc9S7rJ-3" edge="1">
          <mxGeometry relative="1" as="geometry">
            <mxPoint x="300" y="20" as="sourcePoint" />
            <mxPoint x="460" y="20" as="targetPoint" />
          </mxGeometry>
        </mxCell>
        <mxCell id="v1SkrNrnJOkdzIc9S7rJ-85" value="" style="endArrow=none;html=1;rounded=0;entryX=0.5;entryY=1;entryDx=0;entryDy=0;exitX=0.5;exitY=0;exitDx=0;exitDy=0;" parent="1" source="v1SkrNrnJOkdzIc9S7rJ-83" target="v1SkrNrnJOkdzIc9S7rJ-3" edge="1">
          <mxGeometry relative="1" as="geometry">
            <mxPoint x="300" y="20" as="sourcePoint" />
            <mxPoint x="460" y="20" as="targetPoint" />
          </mxGeometry>
        </mxCell>
        <mxCell id="v1SkrNrnJOkdzIc9S7rJ-86" value="categories" style="shape=table;startSize=30;container=1;collapsible=1;childLayout=tableLayout;fixedRows=1;rowLines=0;fontStyle=1;align=center;resizeLast=1;html=1;" parent="1" vertex="1">
          <mxGeometry x="-690" y="-170" width="180" height="90" as="geometry" />
        </mxCell>
        <mxCell id="v1SkrNrnJOkdzIc9S7rJ-87" value="" style="shape=tableRow;horizontal=0;startSize=0;swimlaneHead=0;swimlaneBody=0;fillColor=none;collapsible=0;dropTarget=0;points=[[0,0.5],[1,0.5]];portConstraint=eastwest;top=0;left=0;right=0;bottom=1;" parent="v1SkrNrnJOkdzIc9S7rJ-86" vertex="1">
          <mxGeometry y="30" width="180" height="30" as="geometry" />
        </mxCell>
        <mxCell id="v1SkrNrnJOkdzIc9S7rJ-88" value="PK" style="shape=partialRectangle;connectable=0;fillColor=none;top=0;left=0;bottom=0;right=0;fontStyle=1;overflow=hidden;whiteSpace=wrap;html=1;" parent="v1SkrNrnJOkdzIc9S7rJ-87" vertex="1">
          <mxGeometry width="30" height="30" as="geometry">
            <mxRectangle width="30" height="30" as="alternateBounds" />
          </mxGeometry>
        </mxCell>
        <mxCell id="v1SkrNrnJOkdzIc9S7rJ-89" value="id" style="shape=partialRectangle;connectable=0;fillColor=none;top=0;left=0;bottom=0;right=0;align=left;spacingLeft=6;fontStyle=5;overflow=hidden;whiteSpace=wrap;html=1;" parent="v1SkrNrnJOkdzIc9S7rJ-87" vertex="1">
          <mxGeometry x="30" width="150" height="30" as="geometry">
            <mxRectangle width="150" height="30" as="alternateBounds" />
          </mxGeometry>
        </mxCell>
        <mxCell id="v1SkrNrnJOkdzIc9S7rJ-90" value="" style="shape=tableRow;horizontal=0;startSize=0;swimlaneHead=0;swimlaneBody=0;fillColor=none;collapsible=0;dropTarget=0;points=[[0,0.5],[1,0.5]];portConstraint=eastwest;top=0;left=0;right=0;bottom=0;" parent="v1SkrNrnJOkdzIc9S7rJ-86" vertex="1">
          <mxGeometry y="60" width="180" height="30" as="geometry" />
        </mxCell>
        <mxCell id="v1SkrNrnJOkdzIc9S7rJ-91" value="" style="shape=partialRectangle;connectable=0;fillColor=none;top=0;left=0;bottom=0;right=0;editable=1;overflow=hidden;whiteSpace=wrap;html=1;" parent="v1SkrNrnJOkdzIc9S7rJ-90" vertex="1">
          <mxGeometry width="30" height="30" as="geometry">
            <mxRectangle width="30" height="30" as="alternateBounds" />
          </mxGeometry>
        </mxCell>
        <mxCell id="v1SkrNrnJOkdzIc9S7rJ-92" value="name" style="shape=partialRectangle;connectable=0;fillColor=none;top=0;left=0;bottom=0;right=0;align=left;spacingLeft=6;overflow=hidden;whiteSpace=wrap;html=1;" parent="v1SkrNrnJOkdzIc9S7rJ-90" vertex="1">
          <mxGeometry x="30" width="150" height="30" as="geometry">
            <mxRectangle width="150" height="30" as="alternateBounds" />
          </mxGeometry>
        </mxCell>
        <mxCell id="v1SkrNrnJOkdzIc9S7rJ-99" value="users_id(FK)" style="ellipse;whiteSpace=wrap;html=1;align=center;" parent="1" vertex="1">
          <mxGeometry x="1220" y="120" width="100" height="40" as="geometry" />
        </mxCell>
        <mxCell id="v1SkrNrnJOkdzIc9S7rJ-100" value="posts_id(FK)" style="ellipse;whiteSpace=wrap;html=1;align=center;" parent="1" vertex="1">
          <mxGeometry x="1230" y="200" width="100" height="40" as="geometry" />
        </mxCell>
        <mxCell id="v1SkrNrnJOkdzIc9S7rJ-101" value="id" style="ellipse;whiteSpace=wrap;html=1;align=center;fontStyle=4;" parent="1" vertex="1">
          <mxGeometry x="1070" y="110" width="100" height="40" as="geometry" />
        </mxCell>
        <mxCell id="v1SkrNrnJOkdzIc9S7rJ-102" value="" style="endArrow=none;html=1;rounded=0;entryX=0.5;entryY=0;entryDx=0;entryDy=0;exitX=0.5;exitY=1;exitDx=0;exitDy=0;" parent="1" source="v1SkrNrnJOkdzIc9S7rJ-101" target="v1SkrNrnJOkdzIc9S7rJ-4" edge="1">
          <mxGeometry relative="1" as="geometry">
            <mxPoint x="910" y="180" as="sourcePoint" />
            <mxPoint x="1070" y="180" as="targetPoint" />
          </mxGeometry>
        </mxCell>
        <mxCell id="v1SkrNrnJOkdzIc9S7rJ-103" value="" style="endArrow=none;html=1;rounded=0;entryX=1;entryY=0;entryDx=0;entryDy=0;exitX=0.5;exitY=1;exitDx=0;exitDy=0;" parent="1" source="v1SkrNrnJOkdzIc9S7rJ-99" target="v1SkrNrnJOkdzIc9S7rJ-4" edge="1">
          <mxGeometry relative="1" as="geometry">
            <mxPoint x="1130" y="160" as="sourcePoint" />
            <mxPoint x="1130" y="200" as="targetPoint" />
          </mxGeometry>
        </mxCell>
        <mxCell id="v1SkrNrnJOkdzIc9S7rJ-104" value="" style="endArrow=none;html=1;rounded=0;entryX=1;entryY=0.5;entryDx=0;entryDy=0;exitX=0;exitY=0.5;exitDx=0;exitDy=0;" parent="1" source="v1SkrNrnJOkdzIc9S7rJ-100" target="v1SkrNrnJOkdzIc9S7rJ-4" edge="1">
          <mxGeometry relative="1" as="geometry">
            <mxPoint x="1280" y="170" as="sourcePoint" />
            <mxPoint x="1190" y="200" as="targetPoint" />
          </mxGeometry>
        </mxCell>
        <mxCell id="v1SkrNrnJOkdzIc9S7rJ-106" value="views" style="shape=table;startSize=30;container=1;collapsible=1;childLayout=tableLayout;fixedRows=1;rowLines=0;fontStyle=1;align=center;resizeLast=1;html=1;" parent="1" vertex="1">
          <mxGeometry x="-240" y="-170" width="180" height="120" as="geometry" />
        </mxCell>
        <mxCell id="v1SkrNrnJOkdzIc9S7rJ-119" value="" style="shape=tableRow;horizontal=0;startSize=0;swimlaneHead=0;swimlaneBody=0;fillColor=none;collapsible=0;dropTarget=0;points=[[0,0.5],[1,0.5]];portConstraint=eastwest;top=0;left=0;right=0;bottom=1;" parent="v1SkrNrnJOkdzIc9S7rJ-106" vertex="1">
          <mxGeometry y="30" width="180" height="30" as="geometry" />
        </mxCell>
        <mxCell id="v1SkrNrnJOkdzIc9S7rJ-120" value="PK" style="shape=partialRectangle;connectable=0;fillColor=none;top=0;left=0;bottom=0;right=0;fontStyle=1;overflow=hidden;whiteSpace=wrap;html=1;" parent="v1SkrNrnJOkdzIc9S7rJ-119" vertex="1">
          <mxGeometry width="30" height="30" as="geometry">
            <mxRectangle width="30" height="30" as="alternateBounds" />
          </mxGeometry>
        </mxCell>
        <mxCell id="v1SkrNrnJOkdzIc9S7rJ-121" value="id" style="shape=partialRectangle;connectable=0;fillColor=none;top=0;left=0;bottom=0;right=0;align=left;spacingLeft=6;fontStyle=5;overflow=hidden;whiteSpace=wrap;html=1;" parent="v1SkrNrnJOkdzIc9S7rJ-119" vertex="1">
          <mxGeometry x="30" width="150" height="30" as="geometry">
            <mxRectangle width="150" height="30" as="alternateBounds" />
          </mxGeometry>
        </mxCell>
        <mxCell id="v1SkrNrnJOkdzIc9S7rJ-122" value="" style="shape=tableRow;horizontal=0;startSize=0;swimlaneHead=0;swimlaneBody=0;fillColor=none;collapsible=0;dropTarget=0;points=[[0,0.5],[1,0.5]];portConstraint=eastwest;top=0;left=0;right=0;bottom=1;" parent="v1SkrNrnJOkdzIc9S7rJ-106" vertex="1">
          <mxGeometry y="60" width="180" height="30" as="geometry" />
        </mxCell>
        <mxCell id="v1SkrNrnJOkdzIc9S7rJ-123" value="FK" style="shape=partialRectangle;connectable=0;fillColor=none;top=0;left=0;bottom=0;right=0;fontStyle=1;overflow=hidden;whiteSpace=wrap;html=1;" parent="v1SkrNrnJOkdzIc9S7rJ-122" vertex="1">
          <mxGeometry width="30" height="30" as="geometry">
            <mxRectangle width="30" height="30" as="alternateBounds" />
          </mxGeometry>
        </mxCell>
        <mxCell id="v1SkrNrnJOkdzIc9S7rJ-124" value="posts_id" style="shape=partialRectangle;connectable=0;fillColor=none;top=0;left=0;bottom=0;right=0;align=left;spacingLeft=6;fontStyle=5;overflow=hidden;whiteSpace=wrap;html=1;" parent="v1SkrNrnJOkdzIc9S7rJ-122" vertex="1">
          <mxGeometry x="30" width="150" height="30" as="geometry">
            <mxRectangle width="150" height="30" as="alternateBounds" />
          </mxGeometry>
        </mxCell>
        <mxCell id="v1SkrNrnJOkdzIc9S7rJ-107" value="" style="shape=tableRow;horizontal=0;startSize=0;swimlaneHead=0;swimlaneBody=0;fillColor=none;collapsible=0;dropTarget=0;points=[[0,0.5],[1,0.5]];portConstraint=eastwest;top=0;left=0;right=0;bottom=1;" parent="v1SkrNrnJOkdzIc9S7rJ-106" vertex="1">
          <mxGeometry y="90" width="180" height="30" as="geometry" />
        </mxCell>
        <mxCell id="v1SkrNrnJOkdzIc9S7rJ-108" value="FK" style="shape=partialRectangle;connectable=0;fillColor=none;top=0;left=0;bottom=0;right=0;fontStyle=1;overflow=hidden;whiteSpace=wrap;html=1;" parent="v1SkrNrnJOkdzIc9S7rJ-107" vertex="1">
          <mxGeometry width="30" height="30" as="geometry">
            <mxRectangle width="30" height="30" as="alternateBounds" />
          </mxGeometry>
        </mxCell>
        <mxCell id="v1SkrNrnJOkdzIc9S7rJ-109" value="users_id" style="shape=partialRectangle;connectable=0;fillColor=none;top=0;left=0;bottom=0;right=0;align=left;spacingLeft=6;fontStyle=5;overflow=hidden;whiteSpace=wrap;html=1;" parent="v1SkrNrnJOkdzIc9S7rJ-107" vertex="1">
          <mxGeometry x="30" width="150" height="30" as="geometry">
            <mxRectangle width="150" height="30" as="alternateBounds" />
          </mxGeometry>
        </mxCell>
        <mxCell id="v1SkrNrnJOkdzIc9S7rJ-131" value="tag" style="ellipse;whiteSpace=wrap;html=1;align=center;" parent="1" vertex="1">
          <mxGeometry x="570" y="250" width="90" height="40" as="geometry" />
        </mxCell>
        <mxCell id="v1SkrNrnJOkdzIc9S7rJ-132" value="id" style="ellipse;whiteSpace=wrap;html=1;align=center;fontStyle=4;" parent="1" vertex="1">
          <mxGeometry x="560" y="340" width="100" height="40" as="geometry" />
        </mxCell>
        <mxCell id="v1SkrNrnJOkdzIc9S7rJ-133" value="" style="endArrow=none;html=1;rounded=0;exitX=1;exitY=0.5;exitDx=0;exitDy=0;entryX=0;entryY=0.5;entryDx=0;entryDy=0;" parent="1" source="v1SkrNrnJOkdzIc9S7rJ-5" target="v1SkrNrnJOkdzIc9S7rJ-131" edge="1">
          <mxGeometry relative="1" as="geometry">
            <mxPoint x="530" y="360" as="sourcePoint" />
            <mxPoint x="690" y="360" as="targetPoint" />
          </mxGeometry>
        </mxCell>
        <mxCell id="v1SkrNrnJOkdzIc9S7rJ-134" value="" style="endArrow=none;html=1;rounded=0;exitX=1;exitY=0.5;exitDx=0;exitDy=0;entryX=0;entryY=0.5;entryDx=0;entryDy=0;" parent="1" source="v1SkrNrnJOkdzIc9S7rJ-5" target="v1SkrNrnJOkdzIc9S7rJ-132" edge="1">
          <mxGeometry relative="1" as="geometry">
            <mxPoint x="540" y="340" as="sourcePoint" />
            <mxPoint x="590" y="300" as="targetPoint" />
          </mxGeometry>
        </mxCell>
        <mxCell id="v1SkrNrnJOkdzIc9S7rJ-135" value="hashtags" style="shape=table;startSize=30;container=1;collapsible=1;childLayout=tableLayout;fixedRows=1;rowLines=0;fontStyle=1;align=center;resizeLast=1;html=1;" parent="1" vertex="1">
          <mxGeometry x="-690" y="-50" width="180" height="90" as="geometry" />
        </mxCell>
        <mxCell id="v1SkrNrnJOkdzIc9S7rJ-136" value="" style="shape=tableRow;horizontal=0;startSize=0;swimlaneHead=0;swimlaneBody=0;fillColor=none;collapsible=0;dropTarget=0;points=[[0,0.5],[1,0.5]];portConstraint=eastwest;top=0;left=0;right=0;bottom=1;" parent="v1SkrNrnJOkdzIc9S7rJ-135" vertex="1">
          <mxGeometry y="30" width="180" height="30" as="geometry" />
        </mxCell>
        <mxCell id="v1SkrNrnJOkdzIc9S7rJ-137" value="PK" style="shape=partialRectangle;connectable=0;fillColor=none;top=0;left=0;bottom=0;right=0;fontStyle=1;overflow=hidden;whiteSpace=wrap;html=1;" parent="v1SkrNrnJOkdzIc9S7rJ-136" vertex="1">
          <mxGeometry width="30" height="30" as="geometry">
            <mxRectangle width="30" height="30" as="alternateBounds" />
          </mxGeometry>
        </mxCell>
        <mxCell id="v1SkrNrnJOkdzIc9S7rJ-138" value="id" style="shape=partialRectangle;connectable=0;fillColor=none;top=0;left=0;bottom=0;right=0;align=left;spacingLeft=6;fontStyle=5;overflow=hidden;whiteSpace=wrap;html=1;" parent="v1SkrNrnJOkdzIc9S7rJ-136" vertex="1">
          <mxGeometry x="30" width="150" height="30" as="geometry">
            <mxRectangle width="150" height="30" as="alternateBounds" />
          </mxGeometry>
        </mxCell>
        <mxCell id="v1SkrNrnJOkdzIc9S7rJ-139" value="" style="shape=tableRow;horizontal=0;startSize=0;swimlaneHead=0;swimlaneBody=0;fillColor=none;collapsible=0;dropTarget=0;points=[[0,0.5],[1,0.5]];portConstraint=eastwest;top=0;left=0;right=0;bottom=0;" parent="v1SkrNrnJOkdzIc9S7rJ-135" vertex="1">
          <mxGeometry y="60" width="180" height="30" as="geometry" />
        </mxCell>
        <mxCell id="v1SkrNrnJOkdzIc9S7rJ-140" value="" style="shape=partialRectangle;connectable=0;fillColor=none;top=0;left=0;bottom=0;right=0;editable=1;overflow=hidden;whiteSpace=wrap;html=1;" parent="v1SkrNrnJOkdzIc9S7rJ-139" vertex="1">
          <mxGeometry width="30" height="30" as="geometry">
            <mxRectangle width="30" height="30" as="alternateBounds" />
          </mxGeometry>
        </mxCell>
        <mxCell id="v1SkrNrnJOkdzIc9S7rJ-141" value="tag" style="shape=partialRectangle;connectable=0;fillColor=none;top=0;left=0;bottom=0;right=0;align=left;spacingLeft=6;overflow=hidden;whiteSpace=wrap;html=1;" parent="v1SkrNrnJOkdzIc9S7rJ-139" vertex="1">
          <mxGeometry x="30" width="150" height="30" as="geometry">
            <mxRectangle width="150" height="30" as="alternateBounds" />
          </mxGeometry>
        </mxCell>
        <mxCell id="v1SkrNrnJOkdzIc9S7rJ-148" value="users_id(FK)" style="ellipse;whiteSpace=wrap;html=1;align=center;" parent="1" vertex="1">
          <mxGeometry x="10" y="280" width="90" height="40" as="geometry" />
        </mxCell>
        <mxCell id="v1SkrNrnJOkdzIc9S7rJ-149" value="posts_id(FK)" style="ellipse;whiteSpace=wrap;html=1;align=center;" parent="1" vertex="1">
          <mxGeometry x="10" y="355" width="90" height="40" as="geometry" />
        </mxCell>
        <mxCell id="v1SkrNrnJOkdzIc9S7rJ-150" value="id" style="ellipse;whiteSpace=wrap;html=1;align=center;fontStyle=4;" parent="1" vertex="1">
          <mxGeometry x="-140" y="220" width="100" height="40" as="geometry" />
        </mxCell>
        <mxCell id="v1SkrNrnJOkdzIc9S7rJ-151" value="" style="endArrow=none;html=1;rounded=0;exitX=1;exitY=0.5;exitDx=0;exitDy=0;entryX=0;entryY=0.5;entryDx=0;entryDy=0;" parent="1" source="v1SkrNrnJOkdzIc9S7rJ-6" target="v1SkrNrnJOkdzIc9S7rJ-148" edge="1">
          <mxGeometry relative="1" as="geometry">
            <mxPoint x="-20" y="150" as="sourcePoint" />
            <mxPoint x="10" y="180" as="targetPoint" />
          </mxGeometry>
        </mxCell>
        <mxCell id="v1SkrNrnJOkdzIc9S7rJ-152" value="" style="endArrow=none;html=1;rounded=0;exitX=1;exitY=1;exitDx=0;exitDy=0;entryX=0;entryY=0.5;entryDx=0;entryDy=0;" parent="1" source="v1SkrNrnJOkdzIc9S7rJ-6" target="v1SkrNrnJOkdzIc9S7rJ-149" edge="1">
          <mxGeometry relative="1" as="geometry">
            <mxPoint x="-10" y="320" as="sourcePoint" />
            <mxPoint x="20" y="310" as="targetPoint" />
          </mxGeometry>
        </mxCell>
        <mxCell id="v1SkrNrnJOkdzIc9S7rJ-153" value="" style="endArrow=none;html=1;rounded=0;exitX=0.5;exitY=0;exitDx=0;exitDy=0;entryX=0.5;entryY=1;entryDx=0;entryDy=0;" parent="1" source="v1SkrNrnJOkdzIc9S7rJ-6" target="v1SkrNrnJOkdzIc9S7rJ-150" edge="1">
          <mxGeometry relative="1" as="geometry">
            <mxPoint x="-10" y="350" as="sourcePoint" />
            <mxPoint x="20" y="385" as="targetPoint" />
          </mxGeometry>
        </mxCell>
        <mxCell id="v1SkrNrnJOkdzIc9S7rJ-154" value="likes" style="shape=table;startSize=30;container=1;collapsible=1;childLayout=tableLayout;fixedRows=1;rowLines=0;fontStyle=1;align=center;resizeLast=1;html=1;" parent="1" vertex="1">
          <mxGeometry x="-470" y="-160" width="180" height="120" as="geometry" />
        </mxCell>
        <mxCell id="v1SkrNrnJOkdzIc9S7rJ-155" value="" style="shape=tableRow;horizontal=0;startSize=0;swimlaneHead=0;swimlaneBody=0;fillColor=none;collapsible=0;dropTarget=0;points=[[0,0.5],[1,0.5]];portConstraint=eastwest;top=0;left=0;right=0;bottom=1;" parent="v1SkrNrnJOkdzIc9S7rJ-154" vertex="1">
          <mxGeometry y="30" width="180" height="30" as="geometry" />
        </mxCell>
        <mxCell id="v1SkrNrnJOkdzIc9S7rJ-156" value="PK" style="shape=partialRectangle;connectable=0;fillColor=none;top=0;left=0;bottom=0;right=0;fontStyle=1;overflow=hidden;whiteSpace=wrap;html=1;" parent="v1SkrNrnJOkdzIc9S7rJ-155" vertex="1">
          <mxGeometry width="30" height="30" as="geometry">
            <mxRectangle width="30" height="30" as="alternateBounds" />
          </mxGeometry>
        </mxCell>
        <mxCell id="v1SkrNrnJOkdzIc9S7rJ-157" value="id" style="shape=partialRectangle;connectable=0;fillColor=none;top=0;left=0;bottom=0;right=0;align=left;spacingLeft=6;fontStyle=5;overflow=hidden;whiteSpace=wrap;html=1;" parent="v1SkrNrnJOkdzIc9S7rJ-155" vertex="1">
          <mxGeometry x="30" width="150" height="30" as="geometry">
            <mxRectangle width="150" height="30" as="alternateBounds" />
          </mxGeometry>
        </mxCell>
        <mxCell id="v1SkrNrnJOkdzIc9S7rJ-164" value="" style="shape=tableRow;horizontal=0;startSize=0;swimlaneHead=0;swimlaneBody=0;fillColor=none;collapsible=0;dropTarget=0;points=[[0,0.5],[1,0.5]];portConstraint=eastwest;top=0;left=0;right=0;bottom=1;" parent="v1SkrNrnJOkdzIc9S7rJ-154" vertex="1">
          <mxGeometry y="60" width="180" height="30" as="geometry" />
        </mxCell>
        <mxCell id="v1SkrNrnJOkdzIc9S7rJ-165" value="FK" style="shape=partialRectangle;connectable=0;fillColor=none;top=0;left=0;bottom=0;right=0;fontStyle=1;overflow=hidden;whiteSpace=wrap;html=1;" parent="v1SkrNrnJOkdzIc9S7rJ-164" vertex="1">
          <mxGeometry width="30" height="30" as="geometry">
            <mxRectangle width="30" height="30" as="alternateBounds" />
          </mxGeometry>
        </mxCell>
        <mxCell id="v1SkrNrnJOkdzIc9S7rJ-166" value="users_id" style="shape=partialRectangle;connectable=0;fillColor=none;top=0;left=0;bottom=0;right=0;align=left;spacingLeft=6;fontStyle=5;overflow=hidden;whiteSpace=wrap;html=1;" parent="v1SkrNrnJOkdzIc9S7rJ-164" vertex="1">
          <mxGeometry x="30" width="150" height="30" as="geometry">
            <mxRectangle width="150" height="30" as="alternateBounds" />
          </mxGeometry>
        </mxCell>
        <mxCell id="v1SkrNrnJOkdzIc9S7rJ-167" value="" style="shape=tableRow;horizontal=0;startSize=0;swimlaneHead=0;swimlaneBody=0;fillColor=none;collapsible=0;dropTarget=0;points=[[0,0.5],[1,0.5]];portConstraint=eastwest;top=0;left=0;right=0;bottom=1;" parent="v1SkrNrnJOkdzIc9S7rJ-154" vertex="1">
          <mxGeometry y="90" width="180" height="30" as="geometry" />
        </mxCell>
        <mxCell id="v1SkrNrnJOkdzIc9S7rJ-168" value="FK" style="shape=partialRectangle;connectable=0;fillColor=none;top=0;left=0;bottom=0;right=0;fontStyle=1;overflow=hidden;whiteSpace=wrap;html=1;" parent="v1SkrNrnJOkdzIc9S7rJ-167" vertex="1">
          <mxGeometry width="30" height="30" as="geometry">
            <mxRectangle width="30" height="30" as="alternateBounds" />
          </mxGeometry>
        </mxCell>
        <mxCell id="v1SkrNrnJOkdzIc9S7rJ-169" value="posts_id" style="shape=partialRectangle;connectable=0;fillColor=none;top=0;left=0;bottom=0;right=0;align=left;spacingLeft=6;fontStyle=5;overflow=hidden;whiteSpace=wrap;html=1;" parent="v1SkrNrnJOkdzIc9S7rJ-167" vertex="1">
          <mxGeometry x="30" width="150" height="30" as="geometry">
            <mxRectangle width="150" height="30" as="alternateBounds" />
          </mxGeometry>
        </mxCell>
        <mxCell id="v1SkrNrnJOkdzIc9S7rJ-170" value="id" style="ellipse;whiteSpace=wrap;html=1;align=center;fontStyle=4;" parent="1" vertex="1">
          <mxGeometry x="530" y="490" width="100" height="40" as="geometry" />
        </mxCell>
        <mxCell id="v1SkrNrnJOkdzIc9S7rJ-171" value="content" style="ellipse;whiteSpace=wrap;html=1;align=center;" parent="1" vertex="1">
          <mxGeometry x="440" y="605" width="90" height="40" as="geometry" />
        </mxCell>
        <mxCell id="v1SkrNrnJOkdzIc9S7rJ-172" value="users_id(FK)" style="ellipse;whiteSpace=wrap;html=1;align=center;" parent="1" vertex="1">
          <mxGeometry x="575" y="655" width="90" height="40" as="geometry" />
        </mxCell>
        <mxCell id="v1SkrNrnJOkdzIc9S7rJ-173" value="posts_id(FK)" style="ellipse;whiteSpace=wrap;html=1;align=center;" parent="1" vertex="1">
          <mxGeometry x="715" y="605" width="90" height="40" as="geometry" />
        </mxCell>
        <mxCell id="v1SkrNrnJOkdzIc9S7rJ-174" value="" style="endArrow=none;html=1;rounded=0;exitX=1;exitY=1;exitDx=0;exitDy=0;entryX=0;entryY=0.5;entryDx=0;entryDy=0;" parent="1" source="v1SkrNrnJOkdzIc9S7rJ-7" target="v1SkrNrnJOkdzIc9S7rJ-173" edge="1">
          <mxGeometry relative="1" as="geometry">
            <mxPoint x="690" y="435" as="sourcePoint" />
            <mxPoint x="730" y="375" as="targetPoint" />
          </mxGeometry>
        </mxCell>
        <mxCell id="v1SkrNrnJOkdzIc9S7rJ-175" value="" style="endArrow=none;html=1;rounded=0;exitX=0.5;exitY=1;exitDx=0;exitDy=0;entryX=0.5;entryY=0;entryDx=0;entryDy=0;" parent="1" source="v1SkrNrnJOkdzIc9S7rJ-7" target="v1SkrNrnJOkdzIc9S7rJ-172" edge="1">
          <mxGeometry relative="1" as="geometry">
            <mxPoint x="690" y="625" as="sourcePoint" />
            <mxPoint x="720" y="645" as="targetPoint" />
          </mxGeometry>
        </mxCell>
        <mxCell id="v1SkrNrnJOkdzIc9S7rJ-176" value="" style="endArrow=none;html=1;rounded=0;exitX=0;exitY=1;exitDx=0;exitDy=0;entryX=1;entryY=0.5;entryDx=0;entryDy=0;" parent="1" source="v1SkrNrnJOkdzIc9S7rJ-7" target="v1SkrNrnJOkdzIc9S7rJ-171" edge="1">
          <mxGeometry relative="1" as="geometry">
            <mxPoint x="630" y="625" as="sourcePoint" />
            <mxPoint x="635" y="665" as="targetPoint" />
          </mxGeometry>
        </mxCell>
        <mxCell id="v1SkrNrnJOkdzIc9S7rJ-177" value="" style="endArrow=none;html=1;rounded=0;exitX=0.5;exitY=0;exitDx=0;exitDy=0;entryX=0.597;entryY=0.984;entryDx=0;entryDy=0;entryPerimeter=0;" parent="1" source="v1SkrNrnJOkdzIc9S7rJ-7" target="v1SkrNrnJOkdzIc9S7rJ-170" edge="1">
          <mxGeometry relative="1" as="geometry">
            <mxPoint x="535" y="535" as="sourcePoint" />
            <mxPoint x="530" y="580" as="targetPoint" />
          </mxGeometry>
        </mxCell>
        <mxCell id="v1SkrNrnJOkdzIc9S7rJ-191" value="reports" style="shape=table;startSize=30;container=1;collapsible=1;childLayout=tableLayout;fixedRows=1;rowLines=0;fontStyle=1;align=center;resizeLast=1;html=1;" parent="1" vertex="1">
          <mxGeometry x="-470" y="-10" width="180" height="150" as="geometry" />
        </mxCell>
        <mxCell id="v1SkrNrnJOkdzIc9S7rJ-192" value="" style="shape=tableRow;horizontal=0;startSize=0;swimlaneHead=0;swimlaneBody=0;fillColor=none;collapsible=0;dropTarget=0;points=[[0,0.5],[1,0.5]];portConstraint=eastwest;top=0;left=0;right=0;bottom=1;" parent="v1SkrNrnJOkdzIc9S7rJ-191" vertex="1">
          <mxGeometry y="30" width="180" height="30" as="geometry" />
        </mxCell>
        <mxCell id="v1SkrNrnJOkdzIc9S7rJ-193" value="PK" style="shape=partialRectangle;connectable=0;fillColor=none;top=0;left=0;bottom=0;right=0;fontStyle=1;overflow=hidden;whiteSpace=wrap;html=1;" parent="v1SkrNrnJOkdzIc9S7rJ-192" vertex="1">
          <mxGeometry width="30" height="30" as="geometry">
            <mxRectangle width="30" height="30" as="alternateBounds" />
          </mxGeometry>
        </mxCell>
        <mxCell id="v1SkrNrnJOkdzIc9S7rJ-194" value="id" style="shape=partialRectangle;connectable=0;fillColor=none;top=0;left=0;bottom=0;right=0;align=left;spacingLeft=6;fontStyle=5;overflow=hidden;whiteSpace=wrap;html=1;" parent="v1SkrNrnJOkdzIc9S7rJ-192" vertex="1">
          <mxGeometry x="30" width="150" height="30" as="geometry">
            <mxRectangle width="150" height="30" as="alternateBounds" />
          </mxGeometry>
        </mxCell>
        <mxCell id="v1SkrNrnJOkdzIc9S7rJ-204" value="" style="shape=tableRow;horizontal=0;startSize=0;swimlaneHead=0;swimlaneBody=0;fillColor=none;collapsible=0;dropTarget=0;points=[[0,0.5],[1,0.5]];portConstraint=eastwest;top=0;left=0;right=0;bottom=1;" parent="v1SkrNrnJOkdzIc9S7rJ-191" vertex="1">
          <mxGeometry y="60" width="180" height="30" as="geometry" />
        </mxCell>
        <mxCell id="v1SkrNrnJOkdzIc9S7rJ-205" value="FK" style="shape=partialRectangle;connectable=0;fillColor=none;top=0;left=0;bottom=0;right=0;fontStyle=1;overflow=hidden;whiteSpace=wrap;html=1;" parent="v1SkrNrnJOkdzIc9S7rJ-204" vertex="1">
          <mxGeometry width="30" height="30" as="geometry">
            <mxRectangle width="30" height="30" as="alternateBounds" />
          </mxGeometry>
        </mxCell>
        <mxCell id="v1SkrNrnJOkdzIc9S7rJ-206" value="users_id" style="shape=partialRectangle;connectable=0;fillColor=none;top=0;left=0;bottom=0;right=0;align=left;spacingLeft=6;fontStyle=5;overflow=hidden;whiteSpace=wrap;html=1;" parent="v1SkrNrnJOkdzIc9S7rJ-204" vertex="1">
          <mxGeometry x="30" width="150" height="30" as="geometry">
            <mxRectangle width="150" height="30" as="alternateBounds" />
          </mxGeometry>
        </mxCell>
        <mxCell id="v1SkrNrnJOkdzIc9S7rJ-207" value="" style="shape=tableRow;horizontal=0;startSize=0;swimlaneHead=0;swimlaneBody=0;fillColor=none;collapsible=0;dropTarget=0;points=[[0,0.5],[1,0.5]];portConstraint=eastwest;top=0;left=0;right=0;bottom=1;" parent="v1SkrNrnJOkdzIc9S7rJ-191" vertex="1">
          <mxGeometry y="90" width="180" height="30" as="geometry" />
        </mxCell>
        <mxCell id="v1SkrNrnJOkdzIc9S7rJ-208" value="FK" style="shape=partialRectangle;connectable=0;fillColor=none;top=0;left=0;bottom=0;right=0;fontStyle=1;overflow=hidden;whiteSpace=wrap;html=1;" parent="v1SkrNrnJOkdzIc9S7rJ-207" vertex="1">
          <mxGeometry width="30" height="30" as="geometry">
            <mxRectangle width="30" height="30" as="alternateBounds" />
          </mxGeometry>
        </mxCell>
        <mxCell id="v1SkrNrnJOkdzIc9S7rJ-209" value="posts_id" style="shape=partialRectangle;connectable=0;fillColor=none;top=0;left=0;bottom=0;right=0;align=left;spacingLeft=6;fontStyle=5;overflow=hidden;whiteSpace=wrap;html=1;" parent="v1SkrNrnJOkdzIc9S7rJ-207" vertex="1">
          <mxGeometry x="30" width="150" height="30" as="geometry">
            <mxRectangle width="150" height="30" as="alternateBounds" />
          </mxGeometry>
        </mxCell>
        <mxCell id="v1SkrNrnJOkdzIc9S7rJ-195" value="" style="shape=tableRow;horizontal=0;startSize=0;swimlaneHead=0;swimlaneBody=0;fillColor=none;collapsible=0;dropTarget=0;points=[[0,0.5],[1,0.5]];portConstraint=eastwest;top=0;left=0;right=0;bottom=0;" parent="v1SkrNrnJOkdzIc9S7rJ-191" vertex="1">
          <mxGeometry y="120" width="180" height="30" as="geometry" />
        </mxCell>
        <mxCell id="v1SkrNrnJOkdzIc9S7rJ-196" value="" style="shape=partialRectangle;connectable=0;fillColor=none;top=0;left=0;bottom=0;right=0;editable=1;overflow=hidden;whiteSpace=wrap;html=1;" parent="v1SkrNrnJOkdzIc9S7rJ-195" vertex="1">
          <mxGeometry width="30" height="30" as="geometry">
            <mxRectangle width="30" height="30" as="alternateBounds" />
          </mxGeometry>
        </mxCell>
        <mxCell id="v1SkrNrnJOkdzIc9S7rJ-197" value="content" style="shape=partialRectangle;connectable=0;fillColor=none;top=0;left=0;bottom=0;right=0;align=left;spacingLeft=6;overflow=hidden;whiteSpace=wrap;html=1;" parent="v1SkrNrnJOkdzIc9S7rJ-195" vertex="1">
          <mxGeometry x="30" width="150" height="30" as="geometry">
            <mxRectangle width="150" height="30" as="alternateBounds" />
          </mxGeometry>
        </mxCell>
        <mxCell id="v1SkrNrnJOkdzIc9S7rJ-210" value="followers" style="shape=table;startSize=30;container=1;collapsible=1;childLayout=tableLayout;fixedRows=1;rowLines=0;fontStyle=1;align=center;resizeLast=1;html=1;" parent="1" vertex="1">
          <mxGeometry x="-690" y="80" width="180" height="120" as="geometry" />
        </mxCell>
        <mxCell id="v1SkrNrnJOkdzIc9S7rJ-211" value="" style="shape=tableRow;horizontal=0;startSize=0;swimlaneHead=0;swimlaneBody=0;fillColor=none;collapsible=0;dropTarget=0;points=[[0,0.5],[1,0.5]];portConstraint=eastwest;top=0;left=0;right=0;bottom=1;" parent="v1SkrNrnJOkdzIc9S7rJ-210" vertex="1">
          <mxGeometry y="30" width="180" height="30" as="geometry" />
        </mxCell>
        <mxCell id="v1SkrNrnJOkdzIc9S7rJ-212" value="PK" style="shape=partialRectangle;connectable=0;fillColor=none;top=0;left=0;bottom=0;right=0;fontStyle=1;overflow=hidden;whiteSpace=wrap;html=1;" parent="v1SkrNrnJOkdzIc9S7rJ-211" vertex="1">
          <mxGeometry width="30" height="30" as="geometry">
            <mxRectangle width="30" height="30" as="alternateBounds" />
          </mxGeometry>
        </mxCell>
        <mxCell id="v1SkrNrnJOkdzIc9S7rJ-213" value="id" style="shape=partialRectangle;connectable=0;fillColor=none;top=0;left=0;bottom=0;right=0;align=left;spacingLeft=6;fontStyle=5;overflow=hidden;whiteSpace=wrap;html=1;" parent="v1SkrNrnJOkdzIc9S7rJ-211" vertex="1">
          <mxGeometry x="30" width="150" height="30" as="geometry">
            <mxRectangle width="150" height="30" as="alternateBounds" />
          </mxGeometry>
        </mxCell>
        <mxCell id="v1SkrNrnJOkdzIc9S7rJ-214" value="" style="shape=tableRow;horizontal=0;startSize=0;swimlaneHead=0;swimlaneBody=0;fillColor=none;collapsible=0;dropTarget=0;points=[[0,0.5],[1,0.5]];portConstraint=eastwest;top=0;left=0;right=0;bottom=1;" parent="v1SkrNrnJOkdzIc9S7rJ-210" vertex="1">
          <mxGeometry y="60" width="180" height="30" as="geometry" />
        </mxCell>
        <mxCell id="v1SkrNrnJOkdzIc9S7rJ-215" value="FK" style="shape=partialRectangle;connectable=0;fillColor=none;top=0;left=0;bottom=0;right=0;fontStyle=1;overflow=hidden;whiteSpace=wrap;html=1;" parent="v1SkrNrnJOkdzIc9S7rJ-214" vertex="1">
          <mxGeometry width="30" height="30" as="geometry">
            <mxRectangle width="30" height="30" as="alternateBounds" />
          </mxGeometry>
        </mxCell>
        <mxCell id="v1SkrNrnJOkdzIc9S7rJ-216" value="users_id" style="shape=partialRectangle;connectable=0;fillColor=none;top=0;left=0;bottom=0;right=0;align=left;spacingLeft=6;fontStyle=5;overflow=hidden;whiteSpace=wrap;html=1;" parent="v1SkrNrnJOkdzIc9S7rJ-214" vertex="1">
          <mxGeometry x="30" width="150" height="30" as="geometry">
            <mxRectangle width="150" height="30" as="alternateBounds" />
          </mxGeometry>
        </mxCell>
        <mxCell id="v1SkrNrnJOkdzIc9S7rJ-217" value="" style="shape=tableRow;horizontal=0;startSize=0;swimlaneHead=0;swimlaneBody=0;fillColor=none;collapsible=0;dropTarget=0;points=[[0,0.5],[1,0.5]];portConstraint=eastwest;top=0;left=0;right=0;bottom=1;" parent="v1SkrNrnJOkdzIc9S7rJ-210" vertex="1">
          <mxGeometry y="90" width="180" height="30" as="geometry" />
        </mxCell>
        <mxCell id="v1SkrNrnJOkdzIc9S7rJ-218" value="FK" style="shape=partialRectangle;connectable=0;fillColor=none;top=0;left=0;bottom=0;right=0;fontStyle=1;overflow=hidden;whiteSpace=wrap;html=1;" parent="v1SkrNrnJOkdzIc9S7rJ-217" vertex="1">
          <mxGeometry width="30" height="30" as="geometry">
            <mxRectangle width="30" height="30" as="alternateBounds" />
          </mxGeometry>
        </mxCell>
        <mxCell id="v1SkrNrnJOkdzIc9S7rJ-219" value="posts_id" style="shape=partialRectangle;connectable=0;fillColor=none;top=0;left=0;bottom=0;right=0;align=left;spacingLeft=6;fontStyle=5;overflow=hidden;whiteSpace=wrap;html=1;" parent="v1SkrNrnJOkdzIc9S7rJ-217" vertex="1">
          <mxGeometry x="30" width="150" height="30" as="geometry">
            <mxRectangle width="150" height="30" as="alternateBounds" />
          </mxGeometry>
        </mxCell>
        <mxCell id="v1SkrNrnJOkdzIc9S7rJ-220" value="users_id(FK)" style="ellipse;whiteSpace=wrap;html=1;align=center;" parent="1" vertex="1">
          <mxGeometry x="-10" y="515" width="90" height="40" as="geometry" />
        </mxCell>
        <mxCell id="v1SkrNrnJOkdzIc9S7rJ-221" value="posts_id(FK)" style="ellipse;whiteSpace=wrap;html=1;align=center;" parent="1" vertex="1">
          <mxGeometry x="-10" y="575" width="90" height="40" as="geometry" />
        </mxCell>
        <mxCell id="v1SkrNrnJOkdzIc9S7rJ-222" value="id" style="ellipse;whiteSpace=wrap;html=1;align=center;fontStyle=4;" parent="1" vertex="1">
          <mxGeometry x="160" y="460" width="100" height="40" as="geometry" />
        </mxCell>
        <mxCell id="v1SkrNrnJOkdzIc9S7rJ-223" value="" style="endArrow=none;html=1;rounded=0;exitX=0.5;exitY=1;exitDx=0;exitDy=0;entryX=0.5;entryY=0;entryDx=0;entryDy=0;" parent="1" source="v1SkrNrnJOkdzIc9S7rJ-222" target="v1SkrNrnJOkdzIc9S7rJ-8" edge="1">
          <mxGeometry relative="1" as="geometry">
            <mxPoint x="190" y="510" as="sourcePoint" />
            <mxPoint x="350" y="510" as="targetPoint" />
          </mxGeometry>
        </mxCell>
        <mxCell id="v1SkrNrnJOkdzIc9S7rJ-224" value="" style="endArrow=none;html=1;rounded=0;exitX=1;exitY=0.5;exitDx=0;exitDy=0;entryX=0;entryY=0.5;entryDx=0;entryDy=0;" parent="1" source="v1SkrNrnJOkdzIc9S7rJ-220" target="v1SkrNrnJOkdzIc9S7rJ-8" edge="1">
          <mxGeometry relative="1" as="geometry">
            <mxPoint x="220" y="510" as="sourcePoint" />
            <mxPoint x="220" y="555" as="targetPoint" />
          </mxGeometry>
        </mxCell>
        <mxCell id="v1SkrNrnJOkdzIc9S7rJ-225" value="" style="endArrow=none;html=1;rounded=0;entryX=0;entryY=0.5;entryDx=0;entryDy=0;" parent="1" source="v1SkrNrnJOkdzIc9S7rJ-221" target="v1SkrNrnJOkdzIc9S7rJ-8" edge="1">
          <mxGeometry relative="1" as="geometry">
            <mxPoint x="90" y="545" as="sourcePoint" />
            <mxPoint x="160" y="585" as="targetPoint" />
          </mxGeometry>
        </mxCell>
        <mxCell id="v1SkrNrnJOkdzIc9S7rJ-226" value="posts_hashtags" style="rounded=0;whiteSpace=wrap;html=1;" parent="1" vertex="1">
          <mxGeometry x="325" y="780" width="120" height="60" as="geometry" />
        </mxCell>
        <mxCell id="v1SkrNrnJOkdzIc9S7rJ-227" value="posts_hashtags" style="shape=table;startSize=30;container=1;collapsible=1;childLayout=tableLayout;fixedRows=1;rowLines=0;fontStyle=1;align=center;resizeLast=1;html=1;" parent="1" vertex="1">
          <mxGeometry x="-470" y="170" width="180" height="120" as="geometry" />
        </mxCell>
        <mxCell id="v1SkrNrnJOkdzIc9S7rJ-228" value="" style="shape=tableRow;horizontal=0;startSize=0;swimlaneHead=0;swimlaneBody=0;fillColor=none;collapsible=0;dropTarget=0;points=[[0,0.5],[1,0.5]];portConstraint=eastwest;top=0;left=0;right=0;bottom=1;" parent="v1SkrNrnJOkdzIc9S7rJ-227" vertex="1">
          <mxGeometry y="30" width="180" height="30" as="geometry" />
        </mxCell>
        <mxCell id="v1SkrNrnJOkdzIc9S7rJ-229" value="PK" style="shape=partialRectangle;connectable=0;fillColor=none;top=0;left=0;bottom=0;right=0;fontStyle=1;overflow=hidden;whiteSpace=wrap;html=1;" parent="v1SkrNrnJOkdzIc9S7rJ-228" vertex="1">
          <mxGeometry width="30" height="30" as="geometry">
            <mxRectangle width="30" height="30" as="alternateBounds" />
          </mxGeometry>
        </mxCell>
        <mxCell id="v1SkrNrnJOkdzIc9S7rJ-230" value="id" style="shape=partialRectangle;connectable=0;fillColor=none;top=0;left=0;bottom=0;right=0;align=left;spacingLeft=6;fontStyle=5;overflow=hidden;whiteSpace=wrap;html=1;" parent="v1SkrNrnJOkdzIc9S7rJ-228" vertex="1">
          <mxGeometry x="30" width="150" height="30" as="geometry">
            <mxRectangle width="150" height="30" as="alternateBounds" />
          </mxGeometry>
        </mxCell>
        <mxCell id="v1SkrNrnJOkdzIc9S7rJ-231" value="" style="shape=tableRow;horizontal=0;startSize=0;swimlaneHead=0;swimlaneBody=0;fillColor=none;collapsible=0;dropTarget=0;points=[[0,0.5],[1,0.5]];portConstraint=eastwest;top=0;left=0;right=0;bottom=1;" parent="v1SkrNrnJOkdzIc9S7rJ-227" vertex="1">
          <mxGeometry y="60" width="180" height="30" as="geometry" />
        </mxCell>
        <mxCell id="v1SkrNrnJOkdzIc9S7rJ-232" value="FK" style="shape=partialRectangle;connectable=0;fillColor=none;top=0;left=0;bottom=0;right=0;fontStyle=1;overflow=hidden;whiteSpace=wrap;html=1;" parent="v1SkrNrnJOkdzIc9S7rJ-231" vertex="1">
          <mxGeometry width="30" height="30" as="geometry">
            <mxRectangle width="30" height="30" as="alternateBounds" />
          </mxGeometry>
        </mxCell>
        <mxCell id="v1SkrNrnJOkdzIc9S7rJ-233" value="users_id" style="shape=partialRectangle;connectable=0;fillColor=none;top=0;left=0;bottom=0;right=0;align=left;spacingLeft=6;fontStyle=5;overflow=hidden;whiteSpace=wrap;html=1;" parent="v1SkrNrnJOkdzIc9S7rJ-231" vertex="1">
          <mxGeometry x="30" width="150" height="30" as="geometry">
            <mxRectangle width="150" height="30" as="alternateBounds" />
          </mxGeometry>
        </mxCell>
        <mxCell id="v1SkrNrnJOkdzIc9S7rJ-234" value="" style="shape=tableRow;horizontal=0;startSize=0;swimlaneHead=0;swimlaneBody=0;fillColor=none;collapsible=0;dropTarget=0;points=[[0,0.5],[1,0.5]];portConstraint=eastwest;top=0;left=0;right=0;bottom=1;" parent="v1SkrNrnJOkdzIc9S7rJ-227" vertex="1">
          <mxGeometry y="90" width="180" height="30" as="geometry" />
        </mxCell>
        <mxCell id="v1SkrNrnJOkdzIc9S7rJ-235" value="FK" style="shape=partialRectangle;connectable=0;fillColor=none;top=0;left=0;bottom=0;right=0;fontStyle=1;overflow=hidden;whiteSpace=wrap;html=1;" parent="v1SkrNrnJOkdzIc9S7rJ-234" vertex="1">
          <mxGeometry width="30" height="30" as="geometry">
            <mxRectangle width="30" height="30" as="alternateBounds" />
          </mxGeometry>
        </mxCell>
        <mxCell id="v1SkrNrnJOkdzIc9S7rJ-236" value="hashtags_id" style="shape=partialRectangle;connectable=0;fillColor=none;top=0;left=0;bottom=0;right=0;align=left;spacingLeft=6;fontStyle=5;overflow=hidden;whiteSpace=wrap;html=1;" parent="v1SkrNrnJOkdzIc9S7rJ-234" vertex="1">
          <mxGeometry x="30" width="150" height="30" as="geometry">
            <mxRectangle width="150" height="30" as="alternateBounds" />
          </mxGeometry>
        </mxCell>
        <mxCell id="v1SkrNrnJOkdzIc9S7rJ-237" value="hashtags_id(FK)" style="ellipse;whiteSpace=wrap;html=1;align=center;" parent="1" vertex="1">
          <mxGeometry x="350" y="890" width="90" height="40" as="geometry" />
        </mxCell>
        <mxCell id="v1SkrNrnJOkdzIc9S7rJ-238" value="users_id(FK)" style="ellipse;whiteSpace=wrap;html=1;align=center;" parent="1" vertex="1">
          <mxGeometry x="250" y="880" width="90" height="40" as="geometry" />
        </mxCell>
        <mxCell id="v1SkrNrnJOkdzIc9S7rJ-239" value="id" style="ellipse;whiteSpace=wrap;html=1;align=center;fontStyle=4;" parent="1" vertex="1">
          <mxGeometry x="200" y="800" width="100" height="40" as="geometry" />
        </mxCell>
        <mxCell id="v1SkrNrnJOkdzIc9S7rJ-240" value="" style="endArrow=none;html=1;rounded=0;entryX=0;entryY=0.5;entryDx=0;entryDy=0;exitX=1;exitY=0.5;exitDx=0;exitDy=0;" parent="1" source="v1SkrNrnJOkdzIc9S7rJ-239" target="v1SkrNrnJOkdzIc9S7rJ-226" edge="1">
          <mxGeometry relative="1" as="geometry">
            <mxPoint x="330" y="840" as="sourcePoint" />
            <mxPoint x="490" y="840" as="targetPoint" />
          </mxGeometry>
        </mxCell>
        <mxCell id="v1SkrNrnJOkdzIc9S7rJ-241" value="" style="endArrow=none;html=1;rounded=0;entryX=0.5;entryY=1;entryDx=0;entryDy=0;exitX=0.5;exitY=0;exitDx=0;exitDy=0;" parent="1" source="v1SkrNrnJOkdzIc9S7rJ-238" target="v1SkrNrnJOkdzIc9S7rJ-226" edge="1">
          <mxGeometry relative="1" as="geometry">
            <mxPoint x="310" y="830" as="sourcePoint" />
            <mxPoint x="335" y="820" as="targetPoint" />
          </mxGeometry>
        </mxCell>
        <mxCell id="v1SkrNrnJOkdzIc9S7rJ-242" value="" style="endArrow=none;html=1;rounded=0;entryX=0.5;entryY=1;entryDx=0;entryDy=0;exitX=0.5;exitY=0;exitDx=0;exitDy=0;" parent="1" source="v1SkrNrnJOkdzIc9S7rJ-237" target="v1SkrNrnJOkdzIc9S7rJ-226" edge="1">
          <mxGeometry relative="1" as="geometry">
            <mxPoint x="305" y="890" as="sourcePoint" />
            <mxPoint x="395" y="850" as="targetPoint" />
          </mxGeometry>
        </mxCell>
      </root>
    </mxGraphModel>
  </diagram>
</mxfile>
